<svg width="25" height="24" viewBox="0 0 25 24" fill="none" xmlns="http://www.w3.org/2000/svg">
<g id="star 1">
<path id="Vector" d="M18.5851 14.32C18.3261 14.571 18.2071 14.934 18.2661 15.29L19.1551 20.21C19.2301 20.627 19.0541 21.049 18.7051 21.29C18.3631 21.54 17.9081 21.57 17.5351 21.37L13.1061 19.06C12.9521 18.978 12.7811 18.934 12.6061 18.929H12.3351C12.2411 18.943 12.1491 18.973 12.0651 19.019L7.63507 21.34C7.41607 21.45 7.16807 21.489 6.92507 21.45C6.33307 21.338 5.93807 20.774 6.03507 20.179L6.92507 15.259C6.98407 14.9 6.86507 14.535 6.60607 14.28L2.99507 10.78C2.69307 10.487 2.58807 10.047 2.72607 9.65C2.86007 9.254 3.20207 8.965 3.61507 8.9L8.58507 8.179C8.96307 8.14 9.29507 7.91 9.46508 7.57L11.6551 3.08C11.7071 2.98 11.7741 2.888 11.8551 2.81L11.9451 2.74C11.9921 2.688 12.0461 2.645 12.1061 2.61L12.2151 2.57L12.3851 2.5H12.8061C13.1821 2.539 13.5131 2.764 13.6861 3.1L15.9051 7.57C16.0651 7.897 16.3761 8.124 16.7351 8.179L21.7051 8.9C22.1251 8.96 22.4761 9.25 22.6151 9.65C22.7461 10.051 22.6331 10.491 22.3251 10.78L18.5851 14.32Z" fill="#FF5722"/>
</g>
</svg>
